<mxfile host="app.diagrams.net" modified="2023-07-14T09:59:20.369Z" agent="Mozilla/5.0 (Windows NT 10.0; Win64; x64) AppleWebKit/537.36 (KHTML, like Gecko) Chrome/114.0.0.0 Safari/537.36" etag="TYq5BeUVnkbAQCVkWvVL" version="21.3.8" type="device">
  <diagram name="Page-1" id="b5b7bab2-c9e2-2cf4-8b2a-24fd1a2a6d21">
    <mxGraphModel dx="1430" dy="775" grid="1" gridSize="10" guides="1" tooltips="1" connect="1" arrows="1" fold="1" page="1" pageScale="1" pageWidth="827" pageHeight="1169" background="none" math="0" shadow="0">
      <root>
        <mxCell id="0" />
        <mxCell id="1" parent="0" />
        <mxCell id="6e0c8c40b5770093-72" value="" style="shape=folder;fontStyle=1;spacingTop=10;tabWidth=194;tabHeight=22;tabPosition=left;html=1;rounded=0;shadow=0;comic=0;labelBackgroundColor=none;strokeWidth=1;fillColor=none;fontFamily=Verdana;fontSize=10;align=center;" parent="1" vertex="1">
          <mxGeometry x="460" y="410" width="310" height="210" as="geometry" />
        </mxCell>
        <mxCell id="6e0c8c40b5770093-30" value="" style="group;fillColor=none;" parent="1" vertex="1" connectable="0">
          <mxGeometry x="1045.5" y="294.5" width="230" height="540" as="geometry" />
        </mxCell>
        <mxCell id="6e0c8c40b5770093-24" value="" style="group" parent="6e0c8c40b5770093-30" vertex="1" connectable="0">
          <mxGeometry width="230" height="540" as="geometry" />
        </mxCell>
        <mxCell id="6e0c8c40b5770093-25" value="" style="shape=folder;fontStyle=1;spacingTop=10;tabWidth=123;tabHeight=24;tabPosition=left;html=1;rounded=0;shadow=0;comic=0;labelBackgroundColor=none;strokeWidth=1;fontFamily=Verdana;fontSize=10;align=center;" parent="6e0c8c40b5770093-24" vertex="1">
          <mxGeometry width="230" height="540" as="geometry" />
        </mxCell>
        <mxCell id="7ivJ3HFZAmgEb1jay6Ln-32" value="" style="rounded=0;whiteSpace=wrap;html=1;" vertex="1" parent="6e0c8c40b5770093-24">
          <mxGeometry x="12.25" y="169" width="205.5" height="241" as="geometry" />
        </mxCell>
        <mxCell id="6e0c8c40b5770093-27" value="" style="shape=folder;fontStyle=1;spacingTop=10;tabWidth=50;tabHeight=17;tabPosition=left;html=1;rounded=0;shadow=0;comic=0;labelBackgroundColor=none;strokeWidth=1;fontFamily=Verdana;fontSize=10;align=center;" parent="6e0c8c40b5770093-24" vertex="1">
          <mxGeometry x="46.75" y="188" width="145.5" height="96.5" as="geometry" />
        </mxCell>
        <mxCell id="7ivJ3HFZAmgEb1jay6Ln-2" value="MVVM" style="text;html=1;strokeColor=none;fillColor=none;align=center;verticalAlign=middle;whiteSpace=wrap;rounded=0;" vertex="1" parent="6e0c8c40b5770093-24">
          <mxGeometry x="10" width="64.5" height="25.5" as="geometry" />
        </mxCell>
        <mxCell id="7ivJ3HFZAmgEb1jay6Ln-4" value="" style="shape=module;align=left;spacingLeft=20;align=center;verticalAlign=top;whiteSpace=wrap;html=1;" vertex="1" parent="6e0c8c40b5770093-24">
          <mxGeometry x="125" y="219" width="60" height="50" as="geometry" />
        </mxCell>
        <mxCell id="7ivJ3HFZAmgEb1jay6Ln-5" value="Fragments" style="text;html=1;strokeColor=none;fillColor=none;align=center;verticalAlign=middle;whiteSpace=wrap;rounded=0;" vertex="1" parent="6e0c8c40b5770093-24">
          <mxGeometry x="57.75" y="229" width="60" height="30" as="geometry" />
        </mxCell>
        <mxCell id="7ivJ3HFZAmgEb1jay6Ln-6" value="" style="shape=folder;fontStyle=1;spacingTop=10;tabWidth=50;tabHeight=17;tabPosition=left;html=1;rounded=0;shadow=0;comic=0;labelBackgroundColor=none;strokeWidth=1;fontFamily=Verdana;fontSize=10;align=center;" vertex="1" parent="6e0c8c40b5770093-24">
          <mxGeometry x="46.63" y="418.75" width="147.75" height="94.5" as="geometry" />
        </mxCell>
        <mxCell id="7ivJ3HFZAmgEb1jay6Ln-7" value="" style="shape=module;align=left;spacingLeft=20;align=center;verticalAlign=top;whiteSpace=wrap;html=1;" vertex="1" parent="6e0c8c40b5770093-24">
          <mxGeometry x="127.75" y="441" width="60" height="50" as="geometry" />
        </mxCell>
        <mxCell id="7ivJ3HFZAmgEb1jay6Ln-8" value="ViewModels" style="text;html=1;strokeColor=none;fillColor=none;align=center;verticalAlign=middle;whiteSpace=wrap;rounded=0;" vertex="1" parent="6e0c8c40b5770093-24">
          <mxGeometry x="57.75" y="461" width="60" height="30" as="geometry" />
        </mxCell>
        <mxCell id="7ivJ3HFZAmgEb1jay6Ln-33" value="" style="shape=folder;fontStyle=1;spacingTop=10;tabWidth=50;tabHeight=17;tabPosition=left;html=1;rounded=0;shadow=0;comic=0;labelBackgroundColor=none;strokeWidth=1;fontFamily=Verdana;fontSize=10;align=center;" vertex="1" parent="6e0c8c40b5770093-24">
          <mxGeometry x="46.75" y="297.25" width="145.5" height="95.5" as="geometry" />
        </mxCell>
        <mxCell id="7ivJ3HFZAmgEb1jay6Ln-34" value="" style="shape=module;align=left;spacingLeft=20;align=center;verticalAlign=top;whiteSpace=wrap;html=1;" vertex="1" parent="6e0c8c40b5770093-24">
          <mxGeometry x="125" y="330" width="60" height="50" as="geometry" />
        </mxCell>
        <mxCell id="7ivJ3HFZAmgEb1jay6Ln-35" value="XML" style="text;html=1;strokeColor=none;fillColor=none;align=center;verticalAlign=middle;whiteSpace=wrap;rounded=0;" vertex="1" parent="6e0c8c40b5770093-24">
          <mxGeometry x="57.75" y="340" width="60" height="30" as="geometry" />
        </mxCell>
        <mxCell id="7ivJ3HFZAmgEb1jay6Ln-37" value="&lt;b&gt;&lt;font style=&quot;font-size: 16px;&quot;&gt;UI Page&lt;/font&gt;&lt;/b&gt;" style="text;html=1;strokeColor=none;fillColor=none;align=center;verticalAlign=middle;whiteSpace=wrap;rounded=0;" vertex="1" parent="6e0c8c40b5770093-24">
          <mxGeometry x="82.25" y="165.5" width="130" height="30" as="geometry" />
        </mxCell>
        <mxCell id="7ivJ3HFZAmgEb1jay6Ln-12" value="Repositories" style="shape=cylinder3;whiteSpace=wrap;html=1;boundedLbl=1;backgroundOutline=1;size=15;" vertex="1" parent="6e0c8c40b5770093-24">
          <mxGeometry x="65" y="55.5" width="105.5" height="76" as="geometry" />
        </mxCell>
        <mxCell id="6e0c8c40b5770093-73" value="MobilgerÃ¤t" style="text;html=1;align=left;verticalAlign=top;spacingTop=-4;fontSize=10;fontFamily=Verdana" parent="1" vertex="1">
          <mxGeometry x="895.5" y="230" width="130" height="20" as="geometry" />
        </mxCell>
        <mxCell id="7ivJ3HFZAmgEb1jay6Ln-21" value="" style="edgeStyle=orthogonalEdgeStyle;rounded=0;orthogonalLoop=1;jettySize=auto;html=1;endArrow=none;endFill=0;exitX=1.004;exitY=0.642;exitDx=0;exitDy=0;exitPerimeter=0;entryX=0.004;entryY=0.445;entryDx=0;entryDy=0;entryPerimeter=0;" edge="1" parent="1" source="7ivJ3HFZAmgEb1jay6Ln-16" target="6e0c8c40b5770093-25">
          <mxGeometry relative="1" as="geometry">
            <mxPoint x="1040" y="535" as="targetPoint" />
          </mxGeometry>
        </mxCell>
        <mxCell id="7ivJ3HFZAmgEb1jay6Ln-16" value="" style="shape=folder;fontStyle=1;spacingTop=10;tabWidth=50;tabHeight=17;tabPosition=left;html=1;rounded=0;shadow=0;comic=0;labelBackgroundColor=none;strokeWidth=1;fontFamily=Verdana;fontSize=10;align=center;" vertex="1" parent="1">
          <mxGeometry x="850" y="470" width="151" height="101" as="geometry" />
        </mxCell>
        <mxCell id="7ivJ3HFZAmgEb1jay6Ln-17" value="" style="shape=module;align=left;spacingLeft=20;align=center;verticalAlign=top;whiteSpace=wrap;html=1;" vertex="1" parent="1">
          <mxGeometry x="930.5" y="500" width="60" height="50" as="geometry" />
        </mxCell>
        <mxCell id="7ivJ3HFZAmgEb1jay6Ln-18" value="App" style="text;html=1;strokeColor=none;fillColor=none;align=center;verticalAlign=middle;whiteSpace=wrap;rounded=0;" vertex="1" parent="1">
          <mxGeometry x="864" y="510" width="60" height="30" as="geometry" />
        </mxCell>
        <mxCell id="7ivJ3HFZAmgEb1jay6Ln-22" value="Firebase" style="ellipse;shape=cloud;whiteSpace=wrap;html=1;" vertex="1" parent="1">
          <mxGeometry x="570" y="250" width="200" height="140" as="geometry" />
        </mxCell>
        <mxCell id="7ivJ3HFZAmgEb1jay6Ln-23" value="" style="endArrow=classic;startArrow=classic;html=1;rounded=0;exitX=0.875;exitY=0.5;exitDx=0;exitDy=0;exitPerimeter=0;entryX=0;entryY=0.5;entryDx=0;entryDy=0;entryPerimeter=0;edgeStyle=orthogonalEdgeStyle;" edge="1" parent="1" source="7ivJ3HFZAmgEb1jay6Ln-22" target="7ivJ3HFZAmgEb1jay6Ln-12">
          <mxGeometry width="50" height="50" relative="1" as="geometry">
            <mxPoint x="1150" y="570" as="sourcePoint" />
            <mxPoint x="1200" y="520" as="targetPoint" />
          </mxGeometry>
        </mxCell>
        <mxCell id="7ivJ3HFZAmgEb1jay6Ln-24" value="HTTPS Requests" style="edgeLabel;html=1;align=center;verticalAlign=middle;resizable=0;points=[];" vertex="1" connectable="0" parent="7ivJ3HFZAmgEb1jay6Ln-23">
          <mxGeometry x="-0.0528" y="-3" relative="1" as="geometry">
            <mxPoint x="-20" y="-23" as="offset" />
          </mxGeometry>
        </mxCell>
        <mxCell id="7ivJ3HFZAmgEb1jay6Ln-25" value="" style="endArrow=classic;html=1;rounded=0;exitX=0;exitY=0;exitDx=0;exitDy=59;exitPerimeter=0;entryX=0;entryY=0;entryDx=151;entryDy=59;entryPerimeter=0;" edge="1" parent="1" source="7ivJ3HFZAmgEb1jay6Ln-16" target="7ivJ3HFZAmgEb1jay6Ln-28">
          <mxGeometry width="50" height="50" relative="1" as="geometry">
            <mxPoint x="1150" y="570" as="sourcePoint" />
            <mxPoint x="670" y="529" as="targetPoint" />
          </mxGeometry>
        </mxCell>
        <mxCell id="7ivJ3HFZAmgEb1jay6Ln-31" value="Deployment" style="edgeLabel;html=1;align=center;verticalAlign=middle;resizable=0;points=[];" vertex="1" connectable="0" parent="7ivJ3HFZAmgEb1jay6Ln-25">
          <mxGeometry x="-0.2134" y="-1" relative="1" as="geometry">
            <mxPoint x="14" y="10" as="offset" />
          </mxGeometry>
        </mxCell>
        <mxCell id="7ivJ3HFZAmgEb1jay6Ln-26" value="" style="shape=folder;fontStyle=1;spacingTop=10;tabWidth=194;tabHeight=22;tabPosition=left;html=1;rounded=0;shadow=0;comic=0;labelBackgroundColor=none;strokeWidth=1;fillColor=none;fontFamily=Verdana;fontSize=10;align=center;" vertex="1" parent="1">
          <mxGeometry x="840" y="230" width="460" height="630" as="geometry" />
        </mxCell>
        <mxCell id="7ivJ3HFZAmgEb1jay6Ln-27" value="Google Play Console" style="text;html=1;strokeColor=none;fillColor=none;align=center;verticalAlign=middle;whiteSpace=wrap;rounded=0;" vertex="1" parent="1">
          <mxGeometry x="480" y="410" width="130" height="20" as="geometry" />
        </mxCell>
        <mxCell id="7ivJ3HFZAmgEb1jay6Ln-28" value="" style="shape=folder;fontStyle=1;spacingTop=10;tabWidth=50;tabHeight=17;tabPosition=left;html=1;rounded=0;shadow=0;comic=0;labelBackgroundColor=none;strokeWidth=1;fontFamily=Verdana;fontSize=10;align=center;" vertex="1" parent="1">
          <mxGeometry x="550" y="470" width="151" height="101" as="geometry" />
        </mxCell>
        <mxCell id="7ivJ3HFZAmgEb1jay6Ln-29" value="" style="shape=module;align=left;spacingLeft=20;align=center;verticalAlign=top;whiteSpace=wrap;html=1;" vertex="1" parent="1">
          <mxGeometry x="630.5" y="500" width="60" height="50" as="geometry" />
        </mxCell>
        <mxCell id="7ivJ3HFZAmgEb1jay6Ln-30" value="App im Play Store" style="text;html=1;strokeColor=none;fillColor=none;align=center;verticalAlign=middle;whiteSpace=wrap;rounded=0;" vertex="1" parent="1">
          <mxGeometry x="564" y="510" width="60" height="30" as="geometry" />
        </mxCell>
      </root>
    </mxGraphModel>
  </diagram>
</mxfile>
